<svg xmlns="http://www.w3.org/2000/svg" xmlns:xlink="http://www.w3.org/1999/xlink" version="1.1" width="256" height="256" viewBox="0 0 256 256" xml:space="preserve">
<g style="stroke: none; stroke-width: 0; stroke-dasharray: none; stroke-linecap: butt; stroke-linejoin: miter; stroke-miterlimit: 10; fill: none; fill-rule: nonzero; opacity: 1;" transform="translate(1.4065934065934016 1.4065934065934016) scale(2.81 2.81)">
	<circle cx="45" cy="45" r="45" style="stroke: none; stroke-width: 1; stroke-dasharray: none; stroke-linecap: butt; stroke-linejoin: miter; stroke-miterlimit: 10; fill: rgb(135,187,98); fill-rule: nonzero; opacity: 1;" transform="  matrix(1 0 0 1 0 0) "/>
	<path d="M 46.656 43 h -3.313 c -3.635 0 -6.592 -2.809 -6.592 -6.262 v -3.669 c 0 -3.453 2.957 -6.262 6.592 -6.262 h 3.745 c 3.396 0 6.159 2.623 6.159 5.846 c 0 1.104 0.896 2 2 2 s 2 -0.896 2 -2 c 0 -5.429 -4.558 -9.846 -10.159 -9.846 H 47 V 18 c 0 -1.104 -0.896 -2 -2 -2 s -2 0.896 -2 2 v 4.824 c -5.681 0.178 -10.248 4.699 -10.248 10.245 v 3.669 C 32.752 42.396 37.503 47 43.344 47 h 3.313 c 3.635 0 6.592 2.81 6.592 6.263 v 3.669 c 0 3.453 -2.957 6.262 -6.592 6.262 h -3.746 c -3.396 0 -6.159 -2.622 -6.159 -5.846 c 0 -1.104 -0.896 -2 -2 -2 s -2 0.896 -2 2 c 0 5.429 4.557 9.846 10.159 9.846 H 43 V 72 c 0 1.104 0.896 2 2 2 s 2 -0.896 2 -2 v -4.824 c 5.681 -0.178 10.248 -4.699 10.248 -10.245 v -3.669 C 57.248 47.604 52.497 43 46.656 43 z" style="stroke: none; stroke-width: 1; stroke-dasharray: none; stroke-linecap: butt; stroke-linejoin: miter; stroke-miterlimit: 10; fill: rgb(21,18,18); fill-rule: nonzero; opacity: 1;" transform=" matrix(1 0 0 1 0 0) " stroke-linecap="round"/>
</g>
</svg>